<svg width="35" height="35" viewBox="0 0 35 35" fill="none" xmlns="http://www.w3.org/2000/svg">
<path d="M27.6912 2.9342L32.0662 7.3092L28.7309 10.6459L24.3559 6.27087L27.6912 2.9342ZM11.667 23.3334H16.042L26.6689 12.7065L22.2939 8.3315L11.667 18.9584V23.3334Z" fill="#8F87A1"/>
<path d="M27.7083 27.7083H11.8971C11.8592 27.7083 11.8198 27.7229 11.7819 27.7229C11.7338 27.7229 11.6856 27.7098 11.636 27.7083H7.29167V7.29167H17.2769L20.1935 4.375H7.29167C5.68313 4.375 4.375 5.68167 4.375 7.29167V27.7083C4.375 29.3183 5.68313 30.625 7.29167 30.625H27.7083C28.4819 30.625 29.2237 30.3177 29.7707 29.7707C30.3177 29.2237 30.625 28.4819 30.625 27.7083V15.0675L27.7083 17.9842V27.7083Z" fill="#8F87A1"/>
</svg>
