<svg width="108" height="108" viewBox="0 0 108 108" fill="none" xmlns="http://www.w3.org/2000/svg">
<g filter="url(#filter0_d_27_714)">
<rect x="4" width="100" height="100" rx="20" fill="#EFEFF2"/>
</g>
<path d="M80.172 30.9839L54.672 22.4839C54.2358 22.3385 53.7642 22.3385 53.328 22.4839L27.828 30.9839C27.4048 31.125 27.0368 31.3956 26.776 31.7574C26.5153 32.1193 26.375 32.554 26.375 33V54.25C26.375 54.8136 26.5989 55.3541 26.9974 55.7526C27.3959 56.1511 27.9364 56.375 28.5 56.375C29.0636 56.375 29.6041 56.1511 30.0026 55.7526C30.4011 55.3541 30.625 54.8136 30.625 54.25V35.9484L39.5473 38.9208C37.1768 42.7506 36.423 47.3646 37.4514 51.7497C38.4798 56.1348 41.2064 59.9325 45.0325 62.3091C40.2512 64.1844 36.1181 67.5764 33.0953 72.2142C32.9381 72.4479 32.8289 72.7104 32.7741 72.9867C32.7192 73.2629 32.7198 73.5473 32.7759 73.8233C32.8319 74.0992 32.9422 74.3613 33.1005 74.5943C33.2587 74.8273 33.4616 75.0265 33.6975 75.1803C33.9334 75.3342 34.1975 75.4396 34.4745 75.4905C34.7514 75.5414 35.0358 75.5367 35.3109 75.4767C35.5861 75.4167 35.8466 75.3027 36.0773 75.1411C36.308 74.9796 36.5042 74.7738 36.6547 74.5358C40.6577 68.3945 46.9795 64.875 54 64.875C61.0205 64.875 67.3423 68.3945 71.3453 74.5358C71.657 74.999 72.1384 75.321 72.6856 75.4321C73.2328 75.5431 73.8017 75.4344 74.2693 75.1294C74.7369 74.8244 75.0657 74.3476 75.1846 73.8021C75.3035 73.2566 75.203 72.6862 74.9047 72.2142C71.8819 67.5764 67.7328 64.1844 62.9675 62.3091C66.7899 59.9326 69.5139 56.1374 70.5422 51.7555C71.5704 47.3736 70.819 42.7627 68.4527 38.9341L80.172 35.0294C80.5952 34.8884 80.9634 34.6178 81.2242 34.256C81.4851 33.8941 81.6255 33.4594 81.6255 33.0133C81.6255 32.5672 81.4851 32.1324 81.2242 31.7706C80.9634 31.4087 80.5952 31.1382 80.172 30.9972V30.9839ZM66.75 47.875C66.7506 49.8907 66.2732 51.8778 65.3571 53.6733C64.441 55.4688 63.1122 57.0215 61.4798 58.2041C59.8474 59.3866 57.9579 60.1652 55.9663 60.4761C53.9747 60.7869 51.9378 60.6212 50.0227 59.9924C48.1075 59.3636 46.3688 58.2897 44.9491 56.8588C43.5294 55.4279 42.4691 53.6807 41.8554 51.7607C41.2416 49.8407 41.0919 47.8026 41.4184 45.8135C41.7448 43.8244 42.5383 41.941 43.7336 40.318L53.328 43.5055C53.7642 43.6509 54.2358 43.6509 54.672 43.5055L64.2664 40.318C65.8808 42.5067 66.7513 45.1553 66.75 47.875ZM54 39.2608L35.2203 33L54 26.7392L72.7797 33L54 39.2608Z" fill="#B2B7E2"/>
<defs>
<filter id="filter0_d_27_714" x="0" y="0" width="108" height="108" filterUnits="userSpaceOnUse" color-interpolation-filters="sRGB">
<feFlood flood-opacity="0" result="BackgroundImageFix"/>
<feColorMatrix in="SourceAlpha" type="matrix" values="0 0 0 0 0 0 0 0 0 0 0 0 0 0 0 0 0 0 127 0" result="hardAlpha"/>
<feOffset dy="4"/>
<feGaussianBlur stdDeviation="2"/>
<feComposite in2="hardAlpha" operator="out"/>
<feColorMatrix type="matrix" values="0 0 0 0 0 0 0 0 0 0 0 0 0 0 0 0 0 0 0.25 0"/>
<feBlend mode="normal" in2="BackgroundImageFix" result="effect1_dropShadow_27_714"/>
<feBlend mode="normal" in="SourceGraphic" in2="effect1_dropShadow_27_714" result="shape"/>
</filter>
</defs>
</svg>
