<svg width="71" height="71" viewBox="0 0 71 71" fill="none" xmlns="http://www.w3.org/2000/svg">
<g filter="url(#filter0_d_386_389)">
<rect x="4" width="63" height="63" rx="10" fill="white"/>
</g>
<path fill-rule="evenodd" clip-rule="evenodd" d="M36 18C33.5513 17.9996 31.1454 18.6414 29.0223 19.8613C26.8992 21.0813 25.1332 22.8369 23.9005 24.9527C22.6679 27.0685 22.0118 29.4706 21.9977 31.9192C21.9836 34.3678 22.6119 36.7774 23.82 38.9072C24.6366 37.846 25.6863 36.9868 26.8879 36.396C28.0896 35.8052 29.411 35.4986 30.75 35.5H41.25C42.5891 35.4986 43.9105 35.8052 45.1121 36.396C46.3138 36.9868 47.3634 37.846 48.18 38.9072C49.3881 36.7774 50.0165 34.3678 50.0024 31.9192C49.9882 29.4706 49.3321 27.0685 48.0995 24.9527C46.8669 22.8369 45.1009 21.0813 42.9778 19.8613C40.8547 18.6414 38.4487 17.9996 36 18ZM49.9003 42.633C52.2401 39.5827 53.5057 35.8443 53.5 32C53.5 22.3348 45.6653 14.5 36 14.5C26.3348 14.5 18.5 22.3348 18.5 32C18.4942 35.8444 19.7599 39.5828 22.0998 42.633L22.091 42.6645L22.7123 43.3872C24.3536 45.3061 26.3914 46.8463 28.6854 47.9016C30.9794 48.9569 33.4749 49.5022 36 49.5C39.5478 49.5065 43.013 48.4288 45.9313 46.4113C47.1754 45.5517 48.3035 44.5353 49.2878 43.3872L49.909 42.6645L49.9003 42.633ZM36 21.5C34.6076 21.5 33.2723 22.0531 32.2877 23.0377C31.3031 24.0223 30.75 25.3576 30.75 26.75C30.75 28.1424 31.3031 29.4777 32.2877 30.4623C33.2723 31.4469 34.6076 32 36 32C37.3924 32 38.7278 31.4469 39.7123 30.4623C40.6969 29.4777 41.25 28.1424 41.25 26.75C41.25 25.3576 40.6969 24.0223 39.7123 23.0377C38.7278 22.0531 37.3924 21.5 36 21.5Z" fill="#B2B7E2"/>
<defs>
<filter id="filter0_d_386_389" x="0" y="0" width="71" height="71" filterUnits="userSpaceOnUse" color-interpolation-filters="sRGB">
<feFlood flood-opacity="0" result="BackgroundImageFix"/>
<feColorMatrix in="SourceAlpha" type="matrix" values="0 0 0 0 0 0 0 0 0 0 0 0 0 0 0 0 0 0 127 0" result="hardAlpha"/>
<feOffset dy="4"/>
<feGaussianBlur stdDeviation="2"/>
<feComposite in2="hardAlpha" operator="out"/>
<feColorMatrix type="matrix" values="0 0 0 0 0 0 0 0 0 0 0 0 0 0 0 0 0 0 0.25 0"/>
<feBlend mode="normal" in2="BackgroundImageFix" result="effect1_dropShadow_386_389"/>
<feBlend mode="normal" in="SourceGraphic" in2="effect1_dropShadow_386_389" result="shape"/>
</filter>
</defs>
</svg>
