<svg width="108" height="108" viewBox="0 0 108 108" fill="none" xmlns="http://www.w3.org/2000/svg">
<g filter="url(#filter0_d_27_683)">
<rect x="4" width="100" height="100" rx="20" fill="#EFEFF2"/>
</g>
<path d="M77.375 26.625H30.625C29.4978 26.625 28.4168 27.0728 27.6198 27.8698C26.8228 28.6668 26.375 29.7478 26.375 30.875V69.125C26.375 70.2522 26.8228 71.3332 27.6198 72.1302C28.4168 72.9272 29.4978 73.375 30.625 73.375H34.1817C34.5839 73.3751 34.9778 73.2611 35.3178 73.0463C35.6578 72.8314 35.9298 72.5244 36.1022 72.1611C37.1355 69.9795 38.767 68.136 40.8068 66.8451C42.8466 65.5542 45.211 64.8689 47.625 64.8689C50.039 64.8689 52.4034 65.5542 54.4432 66.8451C56.483 68.136 58.1145 69.9795 59.1478 72.1611C59.3202 72.5244 59.5922 72.8314 59.9322 73.0463C60.2722 73.2611 60.6661 73.3751 61.0683 73.375H77.375C78.5022 73.375 79.5832 72.9272 80.3802 72.1302C81.1772 71.3332 81.625 70.2522 81.625 69.125V30.875C81.625 29.7478 81.1772 28.6668 80.3802 27.8698C79.5832 27.0728 78.5022 26.625 77.375 26.625ZM41.25 54.25C41.25 52.9891 41.6239 51.7566 42.3244 50.7082C43.0249 49.6599 44.0205 48.8428 45.1854 48.3603C46.3503 47.8778 47.6321 47.7515 48.8687 47.9975C50.1053 48.2435 51.2412 48.8506 52.1328 49.7422C53.0244 50.6338 53.6315 51.7697 53.8775 53.0063C54.1235 54.2429 53.9972 55.5247 53.5147 56.6896C53.0322 57.8545 52.2151 58.8501 51.1668 59.5506C50.1184 60.2511 48.8859 60.625 47.625 60.625C45.9342 60.625 44.3127 59.9534 43.1172 58.7578C41.9216 57.5623 41.25 55.9408 41.25 54.25ZM77.375 69.125H62.3486C60.574 66.0741 57.8991 63.6469 54.6906 62.1763C56.2992 60.7439 57.4345 58.8566 57.946 56.7643C58.4575 54.6721 58.3211 52.4738 57.5548 50.4609C56.7885 48.448 55.4286 46.7155 53.6552 45.493C51.8818 44.2706 49.7789 43.616 47.625 43.616C45.4711 43.616 43.3682 44.2706 41.5948 45.493C39.8214 46.7155 38.4615 48.448 37.6952 50.4609C36.9289 52.4738 36.7925 54.6721 37.304 56.7643C37.8155 58.8566 38.9508 60.7439 40.5594 62.1763C37.3509 63.6469 34.676 66.0741 32.9014 69.125H30.625V30.875H77.375V69.125ZM34.875 41.5V37.25C34.875 36.6864 35.0989 36.1459 35.4974 35.7474C35.8959 35.3489 36.4364 35.125 37 35.125H71C71.5636 35.125 72.1041 35.3489 72.5026 35.7474C72.9011 36.1459 73.125 36.6864 73.125 37.25V62.75C73.125 63.3136 72.9011 63.8541 72.5026 64.2526C72.1041 64.6511 71.5636 64.875 71 64.875H66.75C66.1864 64.875 65.6459 64.6511 65.2474 64.2526C64.8489 63.8541 64.625 63.3136 64.625 62.75C64.625 62.1864 64.8489 61.6459 65.2474 61.2474C65.6459 60.8489 66.1864 60.625 66.75 60.625H68.875V39.375H39.125V41.5C39.125 42.0636 38.9011 42.6041 38.5026 43.0026C38.1041 43.4011 37.5636 43.625 37 43.625C36.4364 43.625 35.8959 43.4011 35.4974 43.0026C35.0989 42.6041 34.875 42.0636 34.875 41.5Z" fill="#B2B7E2"/>
<defs>
<filter id="filter0_d_27_683" x="0" y="0" width="108" height="108" filterUnits="userSpaceOnUse" color-interpolation-filters="sRGB">
<feFlood flood-opacity="0" result="BackgroundImageFix"/>
<feColorMatrix in="SourceAlpha" type="matrix" values="0 0 0 0 0 0 0 0 0 0 0 0 0 0 0 0 0 0 127 0" result="hardAlpha"/>
<feOffset dy="4"/>
<feGaussianBlur stdDeviation="2"/>
<feComposite in2="hardAlpha" operator="out"/>
<feColorMatrix type="matrix" values="0 0 0 0 0 0 0 0 0 0 0 0 0 0 0 0 0 0 0.25 0"/>
<feBlend mode="normal" in2="BackgroundImageFix" result="effect1_dropShadow_27_683"/>
<feBlend mode="normal" in="SourceGraphic" in2="effect1_dropShadow_27_683" result="shape"/>
</filter>
</defs>
</svg>
