<svg width="108" height="108" viewBox="0 0 108 108" fill="none" xmlns="http://www.w3.org/2000/svg">
<g filter="url(#filter0_d_27_675)">
<rect x="4" width="100" height="100" rx="20" fill="#EFEFF2"/>
</g>
<path d="M53.9997 55.6667V61.3333C49.491 61.3333 45.167 63.1244 41.9789 66.3125C38.7907 69.5006 36.9997 73.8247 36.9997 78.3333H31.333C31.333 72.3218 33.7211 66.5564 37.9719 62.3056C42.2227 58.0548 47.9881 55.6667 53.9997 55.6667ZM53.9997 52.8333C44.6072 52.8333 36.9997 45.2258 36.9997 35.8333C36.9997 26.4408 44.6072 18.8333 53.9997 18.8333C63.3922 18.8333 70.9997 26.4408 70.9997 35.8333C70.9997 45.2258 63.3922 52.8333 53.9997 52.8333ZM53.9997 47.1667C60.2613 47.1667 65.333 42.095 65.333 35.8333C65.333 29.5717 60.2613 24.5 53.9997 24.5C47.738 24.5 42.6663 29.5717 42.6663 35.8333C42.6663 42.095 47.738 47.1667 53.9997 47.1667ZM79.4997 64.1667H82.333V78.3333H59.6663V64.1667H62.4997V61.3333C62.4997 59.079 63.3952 56.917 64.9893 55.3229C66.5833 53.7289 68.7453 52.8333 70.9997 52.8333C73.254 52.8333 75.416 53.7289 77.0101 55.3229C78.6041 56.917 79.4997 59.079 79.4997 61.3333V64.1667ZM73.833 64.1667V61.3333C73.833 60.5819 73.5345 59.8612 73.0031 59.3299C72.4718 58.7985 71.7511 58.5 70.9997 58.5C70.2482 58.5 69.5276 58.7985 68.9962 59.3299C68.4648 59.8612 68.1663 60.5819 68.1663 61.3333V64.1667H73.833Z" fill="#B2B7E2"/>
<defs>
<filter id="filter0_d_27_675" x="0" y="0" width="108" height="108" filterUnits="userSpaceOnUse" color-interpolation-filters="sRGB">
<feFlood flood-opacity="0" result="BackgroundImageFix"/>
<feColorMatrix in="SourceAlpha" type="matrix" values="0 0 0 0 0 0 0 0 0 0 0 0 0 0 0 0 0 0 127 0" result="hardAlpha"/>
<feOffset dy="4"/>
<feGaussianBlur stdDeviation="2"/>
<feComposite in2="hardAlpha" operator="out"/>
<feColorMatrix type="matrix" values="0 0 0 0 0 0 0 0 0 0 0 0 0 0 0 0 0 0 0.25 0"/>
<feBlend mode="normal" in2="BackgroundImageFix" result="effect1_dropShadow_27_675"/>
<feBlend mode="normal" in="SourceGraphic" in2="effect1_dropShadow_27_675" result="shape"/>
</filter>
</defs>
</svg>
