<svg width="108" height="108" viewBox="0 0 108 108" fill="none" xmlns="http://www.w3.org/2000/svg">
<g filter="url(#filter0_d_409_221)">
<rect x="4" width="100" height="100" rx="20" fill="#EFEFF2"/>
</g>
<path d="M35.5833 35.8333C35.5833 34.7171 35.8032 33.6118 36.2304 32.5805C36.6575 31.5493 37.2836 30.6122 38.0729 29.8229C38.8622 29.0336 39.7993 28.4075 40.8305 27.9804C41.8618 27.5532 42.9671 27.3333 44.0833 27.3333C45.1996 27.3333 46.3049 27.5532 47.3361 27.9804C48.3674 28.4075 49.3044 29.0336 50.0937 29.8229C50.883 30.6122 51.5091 31.5493 51.9363 32.5805C52.3635 33.6118 52.5833 34.7171 52.5833 35.8333C52.5833 38.0877 51.6878 40.2497 50.0937 41.8437C48.4997 43.4378 46.3377 44.3333 44.0833 44.3333C41.829 44.3333 39.667 43.4378 38.0729 41.8437C36.4789 40.2497 35.5833 38.0877 35.5833 35.8333ZM44.0833 21.6667C40.3261 21.6667 36.7228 23.1592 34.066 25.816C31.4092 28.4727 29.9167 32.0761 29.9167 35.8333C29.9167 39.5906 31.4092 43.1939 34.066 45.8507C36.7228 48.5074 40.3261 50 44.0833 50C47.8406 50 51.4439 48.5074 54.1007 45.8507C56.7574 43.1939 58.25 39.5906 58.25 35.8333C58.25 32.0761 56.7574 28.4727 54.1007 25.816C51.4439 23.1592 47.8406 21.6667 44.0833 21.6667ZM63.9167 21.6667H61.0833V27.3333H63.9167C65.0329 27.3333 66.1382 27.5532 67.1695 27.9804C68.2007 28.4075 69.1378 29.0336 69.9271 29.8229C70.7164 30.6122 71.3425 31.5493 71.7696 32.5805C72.1968 33.6118 72.4167 34.7171 72.4167 35.8333C72.4167 36.9496 72.1968 38.0549 71.7696 39.0861C71.3425 40.1174 70.7164 41.0544 69.9271 41.8437C69.1378 42.633 68.2007 43.2591 67.1695 43.6863C66.1382 44.1135 65.0329 44.3333 63.9167 44.3333H61.0833V50H63.9167C67.6739 50 71.2772 48.5074 73.934 45.8507C76.5908 43.1939 78.0833 39.5906 78.0833 35.8333C78.0833 32.0761 76.5908 28.4727 73.934 25.816C71.2772 23.1592 67.6739 21.6667 63.9167 21.6667ZM20 69.8333C20 66.0761 21.4926 62.4727 24.1493 59.816C26.8061 57.1592 30.4094 55.6667 34.1667 55.6667H54C57.7572 55.6667 61.3606 57.1592 64.0173 59.816C66.6741 62.4727 68.1667 66.0761 68.1667 69.8333V75.5H62.5V69.8333C62.5 67.579 61.6045 65.417 60.0104 63.8229C58.4163 62.2289 56.2543 61.3333 54 61.3333H34.1667C31.9123 61.3333 29.7503 62.2289 28.1563 63.8229C26.5622 65.417 25.6667 67.579 25.6667 69.8333V75.5H20V72.6667V69.8333ZM88 69.8333C88 67.9729 87.6336 66.1308 86.9216 64.412C86.2097 62.6932 85.1662 61.1315 83.8507 59.816C82.5352 58.5005 80.9735 57.457 79.2547 56.745C77.5359 56.0331 75.6937 55.6667 73.8333 55.6667H71V61.3333H73.8333C76.0877 61.3333 78.2497 62.2289 79.8437 63.8229C81.4378 65.417 82.3333 67.579 82.3333 69.8333V75.5H88V72.6667V69.8333Z" fill="#B2B7E2"/>
<defs>
<filter id="filter0_d_409_221" x="0" y="0" width="108" height="108" filterUnits="userSpaceOnUse" color-interpolation-filters="sRGB">
<feFlood flood-opacity="0" result="BackgroundImageFix"/>
<feColorMatrix in="SourceAlpha" type="matrix" values="0 0 0 0 0 0 0 0 0 0 0 0 0 0 0 0 0 0 127 0" result="hardAlpha"/>
<feOffset dy="4"/>
<feGaussianBlur stdDeviation="2"/>
<feComposite in2="hardAlpha" operator="out"/>
<feColorMatrix type="matrix" values="0 0 0 0 0 0 0 0 0 0 0 0 0 0 0 0 0 0 0.25 0"/>
<feBlend mode="normal" in2="BackgroundImageFix" result="effect1_dropShadow_409_221"/>
<feBlend mode="normal" in="SourceGraphic" in2="effect1_dropShadow_409_221" result="shape"/>
</filter>
</defs>
</svg>
