<svg width="94" height="94" viewBox="0 0 94 94" fill="none" xmlns="http://www.w3.org/2000/svg">
<path d="M50.9167 66.5834V74.4167H54.8334C55.8721 74.4167 56.8684 74.8294 57.6029 75.5639C58.3374 76.2984 58.75 77.2946 58.75 78.3334H86.1667V86.1667H58.75C58.75 87.2055 58.3374 88.2017 57.6029 88.9362C56.8684 89.6707 55.8721 90.0834 54.8334 90.0834H39.1667C38.1279 90.0834 37.1317 89.6707 36.3972 88.9362C35.6627 88.2017 35.25 87.2055 35.25 86.1667H7.83334V78.3334H35.25C35.25 77.2946 35.6627 76.2984 36.3972 75.5639C37.1317 74.8294 38.1279 74.4167 39.1667 74.4167H43.0834V66.5834H19.5834V60.7084C19.5834 53.1492 31.8425 47 47 47C62.1575 47 74.4167 53.1492 74.4167 60.7084V66.5834H50.9167ZM47 11.75C50.6357 11.75 54.1225 13.1943 56.6933 15.7651C59.2641 18.3359 60.7084 21.8227 60.7084 25.4583C60.7084 29.094 59.2641 32.5808 56.6933 35.1516C54.1225 37.7224 50.6357 39.1667 47 39.1667C43.3644 39.1667 39.8776 37.7224 37.3068 35.1516C34.736 32.5808 33.2917 29.094 33.2917 25.4583C33.2917 21.8227 34.736 18.3359 37.3068 15.7651C39.8776 13.1943 43.3644 11.75 47 11.75Z" fill="#B2B7E2"/>
</svg>
