<svg width="86" height="94" viewBox="0 0 86 94" fill="none" xmlns="http://www.w3.org/2000/svg">
<path d="M72.6364 25.6364C69.0758 25.6364 66.0493 24.3902 63.5568 21.8977C61.0644 19.4053 59.8182 16.3788 59.8182 12.8182C59.8182 9.25758 61.0644 6.23106 63.5568 3.73864C66.0493 1.24621 69.0758 0 72.6364 0C76.197 0 79.2235 1.24621 81.7159 3.73864C84.2083 6.23106 85.4546 9.25758 85.4546 12.8182C85.4546 16.3788 84.2083 19.4053 81.7159 21.8977C79.2235 24.3902 76.197 25.6364 72.6364 25.6364ZM0 94V17.0909C0 14.7409 0.837455 12.7285 2.51236 11.0535C4.18727 9.37864 6.1983 8.54261 8.54546 8.54545H51.7C51.4152 9.9697 51.2727 11.3939 51.2727 12.8182C51.2727 14.2424 51.4152 15.6667 51.7 17.0909C52.0561 18.7288 52.5546 20.2598 53.1955 21.6841C53.8364 23.1083 54.6197 24.4258 55.5455 25.6364H17.0909V34.1818H72.6364C74.9152 34.1818 77.1583 33.8258 79.3659 33.1136C81.5735 32.4015 83.603 31.3333 85.4546 29.9091V68.3636C85.4546 70.7136 84.6171 72.7261 82.9422 74.401C81.2673 76.0759 79.2563 76.9119 76.9091 76.9091H17.0909L0 94ZM17.0909 47H68.3636V38.4545H17.0909V47ZM17.0909 59.8182H51.2727V51.2727H17.0909V59.8182Z" fill="#B2B7E2"/>
</svg>
