<svg width="94" height="94" viewBox="0 0 94 94" fill="none" xmlns="http://www.w3.org/2000/svg">
<path d="M9.79163 47H84.2083" stroke="#B2B7E2" stroke-width="7" stroke-linecap="round" stroke-linejoin="round"/>
<path d="M54.8333 7.83337H39.1667C38.1279 7.83337 37.1317 8.24602 36.3972 8.98054C35.6626 9.71506 35.25 10.7113 35.25 11.75V27.4167C35.25 28.4555 35.6626 29.4517 36.3972 30.1862C37.1317 30.9207 38.1279 31.3334 39.1667 31.3334H54.8333C55.8721 31.3334 56.8683 30.9207 57.6028 30.1862C58.3374 29.4517 58.75 28.4555 58.75 27.4167V11.75C58.75 10.7113 58.3374 9.71506 57.6028 8.98054C56.8683 8.24602 55.8721 7.83337 54.8333 7.83337ZM31.3333 62.6667H15.6667C14.6279 62.6667 13.6317 63.0794 12.8972 63.8139C12.1626 64.5484 11.75 65.5446 11.75 66.5834V82.25C11.75 83.2888 12.1626 84.285 12.8972 85.0195C13.6317 85.7541 14.6279 86.1667 15.6667 86.1667H31.3333C32.3721 86.1667 33.3683 85.7541 34.1028 85.0195C34.8374 84.285 35.25 83.2888 35.25 82.25V66.5834C35.25 65.5446 34.8374 64.5484 34.1028 63.8139C33.3683 63.0794 32.3721 62.6667 31.3333 62.6667ZM78.3333 62.6667H62.6667C61.6279 62.6667 60.6317 63.0794 59.8972 63.8139C59.1626 64.5484 58.75 65.5446 58.75 66.5834V82.25C58.75 83.2888 59.1626 84.285 59.8972 85.0195C60.6317 85.7541 61.6279 86.1667 62.6667 86.1667H78.3333C79.3721 86.1667 80.3683 85.7541 81.1028 85.0195C81.8374 84.285 82.25 83.2888 82.25 82.25V66.5834C82.25 65.5446 81.8374 64.5484 81.1028 63.8139C80.3683 63.0794 79.3721 62.6667 78.3333 62.6667Z" stroke="#B2B7E2" stroke-width="9" stroke-linejoin="round"/>
<path d="M47 47V31.3334M70.5 62.6667V47M23.5 62.6667V47" stroke="#B2B7E2" stroke-width="6" stroke-linecap="round" stroke-linejoin="round"/>
</svg>
