<svg width="94" height="94" viewBox="0 0 94 94" fill="none" xmlns="http://www.w3.org/2000/svg">
<path d="M27.4166 66.5833H39.1666C40.2764 66.5833 41.2072 66.2073 41.9592 65.4553C42.7112 64.7033 43.0859 63.7738 43.0833 62.6667C43.0833 61.5569 42.7073 60.6261 41.9553 59.8741C41.2033 59.1221 40.2738 58.7474 39.1666 58.75H27.4166C26.3069 58.75 25.3761 59.126 24.6241 59.878C23.8721 60.63 23.4974 61.5596 23.5 62.6667C23.5 63.7764 23.876 64.7072 24.628 65.4592C25.38 66.2113 26.3095 66.5859 27.4166 66.5833ZM27.4166 50.9167H39.1666C40.2764 50.9167 41.2072 50.5407 41.9592 49.7887C42.7112 49.0367 43.0859 48.1071 43.0833 47C43.0833 45.8903 42.7073 44.9594 41.9553 44.2074C41.2033 43.4554 40.2738 43.0807 39.1666 43.0833H27.4166C26.3069 43.0833 25.3761 43.4593 24.6241 44.2113C23.8721 44.9633 23.4974 45.8929 23.5 47C23.5 48.1097 23.876 49.0406 24.628 49.7926C25.38 50.5446 26.3095 50.9193 27.4166 50.9167ZM66.5833 27.4167C65.4736 27.4167 64.5427 27.7927 63.7907 28.5447C63.0387 29.2967 62.664 30.2262 62.6666 31.3333V47C62.6666 48.1097 63.0426 49.0406 63.7946 49.7926C64.5466 50.5446 65.4762 50.9193 66.5833 50.9167C67.693 50.9167 68.6239 50.5407 69.3759 49.7887C70.1279 49.0367 70.5026 48.1071 70.5 47V31.3333C70.5 30.2236 70.124 29.2928 69.372 28.5408C68.62 27.7888 67.6904 27.4141 66.5833 27.4167ZM27.4166 35.25H39.1666C40.2764 35.25 41.2072 34.874 41.9592 34.122C42.7112 33.37 43.0859 32.4405 43.0833 31.3333C43.0833 30.2236 42.7073 29.2928 41.9553 28.5408C41.2033 27.7888 40.2738 27.4141 39.1666 27.4167H27.4166C26.3069 27.4167 25.3761 27.7927 24.6241 28.5447C23.8721 29.2967 23.4974 30.2262 23.5 31.3333C23.5 32.4431 23.876 33.3739 24.628 34.1259C25.38 34.8779 26.3095 35.2526 27.4166 35.25ZM15.6667 82.25C13.5125 82.25 11.6677 81.4823 10.1324 79.947C8.59707 78.4117 7.83071 76.5682 7.83332 74.4167V19.5833C7.83332 17.4292 8.60099 15.5844 10.1363 14.0491C11.6717 12.5138 13.5151 11.7474 15.6667 11.75H78.3333C80.4875 11.75 82.3322 12.5177 83.8675 14.053C85.4029 15.5883 86.1692 17.4318 86.1666 19.5833V74.4167C86.1666 76.5708 85.399 78.4156 83.8636 79.9509C82.3283 81.4863 80.4849 82.2526 78.3333 82.25H15.6667ZM66.5833 66.5833C67.693 66.5833 68.6239 66.2073 69.3759 65.4553C70.1279 64.7033 70.5026 63.7738 70.5 62.6667C70.5 61.5569 70.124 60.6261 69.372 59.8741C68.62 59.1221 67.6904 58.7474 66.5833 58.75C65.4736 58.75 64.5427 59.126 63.7907 59.878C63.0387 60.63 62.664 61.5596 62.6666 62.6667C62.6666 63.7764 63.0426 64.7072 63.7946 65.4592C64.5466 66.2113 65.4762 66.5859 66.5833 66.5833Z" fill="#B2B7E2"/>
</svg>
