<svg width="94" height="94" viewBox="0 0 94 94" fill="none" xmlns="http://www.w3.org/2000/svg">
<path d="M43.0833 47.0001C38.775 47.0001 35.0868 45.4661 32.0187 42.398C28.9507 39.3299 27.4167 35.6417 27.4167 31.3334C27.4167 27.0251 28.9507 23.3369 32.0187 20.2688C35.0868 17.2008 38.775 15.6667 43.0833 15.6667C47.3917 15.6667 51.0799 17.2008 54.1479 20.2688C57.216 23.3369 58.75 27.0251 58.75 31.3334C58.75 35.6417 57.216 39.3299 54.1479 42.398C51.0799 45.4661 47.3917 47.0001 43.0833 47.0001ZM86.5583 92.0417L74.025 79.5084C72.6542 80.2917 71.1854 80.9445 69.6187 81.4667C68.0521 81.989 66.3875 82.2501 64.625 82.2501C59.7292 82.2501 55.5684 80.5359 52.1426 77.1075C48.7168 73.6791 47.0026 69.5183 47 64.6251C47 59.7292 48.7142 55.5671 52.1426 52.1387C55.571 48.7104 59.7318 46.9975 64.625 47.0001C69.5208 47.0001 73.6829 48.7143 77.1113 52.1427C80.5397 55.5711 82.2526 59.7319 82.25 64.6251C82.25 66.3876 81.9889 68.0522 81.4667 69.6188C80.9444 71.1855 80.2917 72.6542 79.5083 74.0251L92.0417 86.5584L86.5583 92.0417ZM64.625 74.4167C67.3667 74.4167 69.684 73.4702 71.5771 71.5772C73.4701 69.6841 74.4167 67.3667 74.4167 64.6251C74.4167 61.8834 73.4701 59.5661 71.5771 57.673C69.684 55.7799 67.3667 54.8334 64.625 54.8334C61.8833 54.8334 59.566 55.7799 57.6729 57.673C55.7799 59.5661 54.8333 61.8834 54.8333 64.6251C54.8333 67.3667 55.7799 69.6841 57.6729 71.5772C59.566 73.4702 61.8833 74.4167 64.625 74.4167ZM43.1812 50.9167C40.4396 54.964 39.0687 59.5334 39.0687 64.6251C39.0687 69.7167 40.4396 74.2862 43.1812 78.3334H11.75V67.4647C11.75 65.2452 12.3049 63.189 13.4146 61.2959C14.5243 59.4029 16.0583 57.9668 18.0167 56.9876C21.3458 55.2904 25.0993 53.8542 29.2771 52.6792C33.4549 51.5042 38.0896 50.9167 43.1812 50.9167Z" fill="#B2B7E2"/>
</svg>
